<svg id="Layer_1" enable-background="new 0 0 128 128" height="512" viewBox="0 0 128 128" width="512" xmlns="http://www.w3.org/2000/svg"><path d="m121.699 39.46-7.129-2.224c-.41-.128-.69-.504-.695-.934l-.088-7.467c-.016-1.319-.839-2.426-2.099-2.819-1.259-.392-2.567.048-3.332 1.125l-.392.554c-2.934-5.557-7.742-9.759-13.705-11.919-7.819-2.831-16.533-1.624-23.314 3.226-.386.276-.524.787-.331 1.22.192.434.662.668 1.129.57 4.313-.953 8.777-.666 12.901.828 5.137 1.86 9.357 5.387 12.089 10.051l-.925-.289c-1.26-.392-2.567.049-3.33 1.125-.764 1.077-.747 2.457.041 3.515l4.461 5.989c.257.345.263.813.013 1.164l-4.316 6.093c-.764 1.077-.748 2.457.041 3.515.788 1.059 2.107 1.47 3.355 1.047l7.074-2.391c.406-.139.854.001 1.112.347l4.46 5.989c.582.782 1.453 1.211 2.373 1.211.325 0 .656-.054.982-.164 1.25-.422 2.049-1.548 2.033-2.868l-.088-7.468c-.006-.43.265-.811.673-.949l7.074-2.391c1.25-.423 2.048-1.549 2.032-2.869-.015-1.317-.839-2.424-2.099-2.817z" fill="#e6e7e8"/><path d="m81.461 34.283c-.269-.94-.888-1.72-1.743-2.195-.853-.475-1.845-.587-2.783-.32l-3.723 1.063c-1.941.555-3.069 2.585-2.516 4.527l.328 1.147-36.232 10.352c-.824.235-1.507.777-1.924 1.526-.416.749-.516 1.615-.28 2.439l.157.551-8.809 2.516c-.63.18-1.152.594-1.471 1.167-.317.572-.394 1.235-.214 1.864l.722 2.528-8.202 2.343c-.53-1.75-2.372-2.763-4.134-2.259-1.78.509-2.815 2.372-2.308 4.153l3.222 11.275c.422 1.474 1.771 2.437 3.232 2.437.305 0 .614-.042.921-.13 1.763-.504 2.791-2.336 2.317-4.102l8.202-2.343.723 2.529c.308 1.075 1.292 1.778 2.358 1.778.223 0 .448-.031.672-.095l8.809-2.517.157.551c.174.608.52 1.118.962 1.509v3.758c0 .677.306 1.278.779 1.693l-11.992 30.903c-.34.877-.318 1.834.061 2.695.38.861 1.071 1.522 1.949 1.863.417.162.847.238 1.27.238 1.411 0 2.747-.855 3.288-2.248l12.762-32.885h6.105l12.761 32.885c.541 1.393 1.876 2.248 3.289 2.248.422 0 .852-.077 1.27-.238 1.81-.703 2.711-2.748 2.009-4.558l-11.991-30.901c.473-.414.778-1.016.778-1.693v-8.587l16.901-4.829.328 1.147c.46 1.606 1.93 2.655 3.522 2.655.332 0 .67-.045 1.004-.141l3.723-1.063c1.941-.555 3.069-2.585 2.516-4.526z" fill="#e6e7e8"/><path d="m38.165 77.596c-.078 0-.147-.031-.221-.045l-12.318 31.743c-.504 1.298.14 2.76 1.439 3.264 1.298.504 2.76-.14 3.264-1.439l13.009-33.523z" fill="#ffd7e5"/><path d="m68.524 109.294-12.319-31.743c-.075.014-.143.045-.221.045h-5.172l13.009 33.523c.504 1.298 1.965 1.943 3.264 1.439 1.298-.504 1.943-1.965 1.439-3.264z" fill="#ffd7e5"/><path d="m38.636 72.312c-.607.174-1.225.071-1.729-.227v4.253c0 .695.564 1.259 1.259 1.259h17.818c.695 0 1.259-.564 1.259-1.259v-9.342z" fill="#0089ef"/><path d="m11.238 59.393h10.525v9.83h-10.525z" fill="#ffd7e5" transform="matrix(.962 -.275 .275 .962 -17.032 7.007)"/><path d="m29.982 50.06-9.771 2.792c-.771.22-1.217 1.024-.997 1.795l4.695 16.431c.22.771 1.024 1.217 1.795.997l9.771-2.792z" fill="#fa759e"/><path d="m11.431 74.308c1.253-.358 1.978-1.664 1.62-2.916l-3.221-11.276c-.358-1.253-1.664-1.978-2.916-1.62-1.253.358-1.978 1.664-1.62 2.916l3.221 11.275c.358 1.253 1.663 1.979 2.916 1.621z" fill="#fa759e"/><path d="m68.261 35.192-37.195 10.627c-1.172.335-1.851 1.557-1.516 2.729l6.356 22.247c.335 1.172 1.557 1.851 2.729 1.516l37.195-10.627z" fill="#fa759e"/><path d="m31.953 48.923 37.195-10.627 6.682 23.388-7.569-26.493-37.195 10.628c-1.172.335-1.851 1.557-1.516 2.729l.887 3.104c-.335-1.172.344-2.394 1.516-2.729z" fill="#fff"/><path d="m83.445 64.557-3.722 1.064c-1.413.404-2.886-.415-3.29-1.828l-8.774-30.71c-.404-1.413.415-2.886 1.828-3.29l3.722-1.064c1.413-.404 2.886.415 3.29 1.828l8.774 30.71c.404 1.413-.414 2.886-1.828 3.29z" fill="#fa759e"/><circle cx="45.633" cy="55.985" fill="#6dc9f7" r="6.047"/><path d="m94.729 29.343 3.909 1.219c.823.257 1.718-.046 2.217-.749l2.953-4.168c-2.59-5.806-7.441-10.592-13.891-12.928-7.807-2.826-16.113-1.392-22.391 3.099 4.334-.956 8.976-.758 13.457.864 6.35 2.3 11.134 6.978 13.746 12.663z" fill="#6dc9f7"/><path d="m109.107 51.968-.088-7.467c-.01-.862.536-1.633 1.353-1.909l7.074-2.391c1.827-.617 1.796-3.212-.045-3.786l-7.129-2.224c-.823-.257-1.387-1.014-1.398-1.877l-.088-7.467c-.023-1.928-2.499-2.701-3.614-1.127l-4.318 6.093c-.499.704-1.393 1.006-2.217.749l-7.129-2.224c-1.841-.574-3.341 1.543-2.189 3.089l4.46 5.989c.515.692.526 1.636.028 2.34l-4.318 6.093c-1.115 1.573.435 3.654 2.261 3.036l7.074-2.391c.817-.276 1.719.005 2.234.697l4.46 5.989c1.154 1.547 3.612.716 3.589-1.212z" fill="#ffd7e5"/><g fill="#3a2c60"><path d="m45.631 42.658c.092 0 .184-.013.275-.039l4.693-1.341c.531-.151.839-.705.688-1.236-.152-.531-.71-.835-1.236-.687l-4.693 1.341c-.531.151-.839.705-.688 1.236.127.439.527.726.961.726z"/><path d="m39.602 52.338c-.974 1.611-1.262 3.504-.812 5.332s1.585 3.371 3.195 4.345c1.115.674 2.364 1.02 3.634 1.02.565 0 1.135-.068 1.698-.207 1.828-.451 3.371-1.586 4.345-3.197.975-1.611 1.263-3.504.812-5.332-.45-1.828-1.585-3.371-3.195-4.344s-3.502-1.262-5.332-.812c-1.828.449-3.371 1.584-4.345 3.195zm1.712 1.035c.697-1.153 1.802-1.966 3.111-2.289.403-.1.812-.149 1.216-.149.909 0 1.805.248 2.603.73 1.153.697 1.967 1.802 2.289 3.111s.116 2.665-.581 3.819c-.698 1.153-1.803 1.967-3.112 2.289s-2.665.116-3.818-.582-1.967-1.803-2.289-3.112-.116-2.663.581-3.817z"/><path d="m77.461 30.283c-.269-.94-.888-1.72-1.742-2.195s-1.845-.587-2.784-.32l-3.723 1.063c-.94.269-1.72.888-2.195 1.743s-.588 1.844-.319 2.784l.328 1.147-12.093 3.455c-.531.152-.839.705-.688 1.236.126.439.526.726.961.726.092 0 .184-.013.275-.039l12.092-3.455 7.02 24.57-36.232 10.352c-.31.089-.636.051-.919-.105-.282-.157-.486-.414-.574-.724l-.431-1.51c0-.001 0-.001 0-.002l-5.492-19.223c0-.001-.001-.001-.001-.002l-.431-1.51c-.184-.64.188-1.31.829-1.493l10.101-2.886c.531-.152.839-.705.688-1.236-.152-.532-.709-.837-1.236-.687l-10.101 2.886c-1.701.486-2.689 2.265-2.204 3.966l.157.551-8.81 2.516c-1.299.372-2.054 1.731-1.684 3.031l.722 2.528-8.201 2.343c-.253-.84-.811-1.538-1.58-1.965-.785-.436-1.692-.539-2.554-.293-.863.247-1.578.814-2.014 1.599-.437.784-.54 1.691-.294 2.554l3.221 11.275c.422 1.474 1.771 2.437 3.232 2.437.305 0 .614-.042.921-.13 1.763-.503 2.791-2.336 2.317-4.102l8.202-2.343.723 2.529c.308 1.075 1.292 1.778 2.358 1.778.222 0 .448-.031.672-.095l8.809-2.517.157.551c.171.597.507 1.117.963 1.518v3.749c0 .677.305 1.278.778 1.692l-11.992 30.903c-.702 1.81.199 3.855 2.01 4.558.417.162.847.239 1.27.239 1.411 0 2.747-.855 3.288-2.248l12.762-32.885h6.105l12.761 32.885c.341.877 1.002 1.569 1.863 1.949.455.201.938.301 1.42.301.431 0 .861-.08 1.274-.241.878-.34 1.569-1.001 1.949-1.862s.401-1.818.062-2.695l-11.993-30.904c.474-.414.779-1.016.779-1.693v-8.588l16.9-4.828.328 1.147c.46 1.606 1.93 2.656 3.523 2.656.332 0 .67-.045 1.004-.141l3.722-1.063c.941-.269 1.721-.888 2.195-1.743.476-.855.589-1.844.32-2.784zm-66.304 43.063c-.726.206-1.476-.213-1.681-.934l-3.221-11.274c-.101-.349-.059-.716.118-1.033.176-.317.466-.547.814-.647.124-.035.25-.053.376-.053.228 0 .453.058.658.171.316.176.546.466.646.815l2.961 10.361v.002c0 .001.001.001.001.002l.26.909c.207.721-.212 1.475-.932 1.681zm2.321-4.103-2.151-7.528 8.197-2.342 2.151 7.528zm11.95 1.87c-.243.07-.49-.071-.559-.311l-.997-3.49s0 0 0 0l-2.7-9.45v-.001s0-.001 0-.001l-.997-3.488c-.068-.24.071-.491.31-.56l8.809-2.516 4.943 17.299zm3.967 39.644c-.303.783-1.187 1.172-1.969.869-.782-.304-1.172-1.188-.868-1.97l12.053-31.06h3.265zm21.444-34.161h-7.53s0 0-.001 0h-5.135c-.004-.001-.009-.001-.013-.002-.14-.003-.253-.116-.253-.257v-2.954c.04.001.078.015.117.015.296 0 .594-.042.886-.125l17.333-4.952v8.017c0 .14-.113.252-.252.256-.005.001-.011.001-.016.003h-5.132c-.002-.001-.003-.001-.004-.001zm16.752 33.06c.147.379.138.792-.026 1.165s-.463.658-.843.805c-.378.148-.792.137-1.164-.026-.372-.164-.658-.463-.805-.842l-12.48-32.161h3.264zm16.576-46.851c-.216.388-.569.669-.996.791l-3.722 1.063c-.885.252-1.804-.261-2.055-1.142l-.601-2.105c0-.001 0-.003 0-.004s-.001-.002-.002-.003l-7.568-26.488v-.001s0 0 0-.001l-.602-2.108c-.122-.427-.071-.875.145-1.264.215-.388.569-.668.995-.791l3.723-1.063c.151-.043.306-.064.459-.064.278 0 .555.071.805.21.388.215.669.569.79.996l8.774 30.709c.121.429.07.877-.145 1.265z"/><path d="m117.699 35.46-7.129-2.224c-.41-.128-.69-.504-.695-.934l-.088-7.467c-.016-1.319-.839-2.426-2.099-2.819-1.259-.392-2.567.048-3.332 1.125l-.392.554c-2.934-5.557-7.742-9.759-13.705-11.919-7.819-2.831-16.533-1.624-23.314 3.226-.386.276-.524.787-.331 1.22.192.434.662.668 1.129.57 4.313-.953 8.777-.666 12.901.828 5.137 1.86 9.357 5.387 12.089 10.051l-.925-.289c-1.26-.392-2.567.049-3.33 1.125-.764 1.077-.747 2.457.041 3.515l4.461 5.989c.257.345.263.813.013 1.164l-4.316 6.093c-.764 1.077-.748 2.457.041 3.515.788 1.059 2.107 1.47 3.355 1.047l7.074-2.391c.406-.139.854.001 1.112.347l4.46 5.989c.582.782 1.453 1.211 2.373 1.211.325 0 .656-.054.982-.164 1.25-.422 2.049-1.548 2.033-2.868l-.088-7.468c-.006-.43.265-.811.673-.949l7.074-2.391c1.25-.423 2.048-1.549 2.032-2.869-.015-1.317-.839-2.424-2.099-2.817zm-28.122-21.802c5.815 2.105 10.425 6.328 13.068 11.9l-2.316 3.269c-3.042-7.149-7.464-11.999-13.162-14.422-3.303-1.405-6.631-1.815-9.604-1.74 3.973-.714 8.113-.419 12.014.993zm-8.252 2.083c-1.311-.474-2.654-.823-4.012-1.073 2.8-.103 5.953.251 9.072 1.577 5.161 2.195 9.204 6.634 12.034 13.202l-2.997-.935c-2.879-5.98-7.859-10.512-14.097-12.771zm35.801 23.512-7.074 2.391c-1.231.417-2.048 1.569-2.032 2.868l.088 7.467c.008.668-.514.896-.674.95-.159.055-.711.188-1.111-.347l-4.46-5.989c-.577-.774-1.47-1.205-2.395-1.205-.321 0-.646.052-.962.159l-7.074 2.391c-.627.211-1.011-.211-1.111-.347-.101-.135-.399-.619-.013-1.164l4.316-6.092c.752-1.06.735-2.472-.041-3.515l-4.461-5.989c-.398-.536-.111-1.026-.014-1.164s.471-.571 1.104-.373l7.129 2.224c.658.205 1.342.168 1.953-.066.001-.001.003 0 .005-.001s.003-.002.005-.003c.536-.207 1.016-.562 1.367-1.056l4.317-6.092c.387-.546.942-.423 1.104-.373.161.05.688.266.695.934l.088 7.468c.017 1.299.86 2.432 2.1 2.819l7.129 2.224c.638.199.693.765.695.934s-.041.733-.673.947z"/></g></svg>