<?xml version="1.0" encoding="iso-8859-1"?>
<!-- Generator: Adobe Illustrator 19.0.0, SVG Export Plug-In . SVG Version: 6.00 Build 0)  -->
<svg version="1.1" id="Capa_1" xmlns="http://www.w3.org/2000/svg" xmlns:xlink="http://www.w3.org/1999/xlink" x="0px" y="0px"
	 viewBox="0 0 512 512" style="enable-background:new 0 0 512 512;" xml:space="preserve">
<path style="fill:#7CB777;" d="M508.293,121.613c-11.018-6.307-32.805-13.747-57.183,5.314l22.825-46.943
	c2.087-4.293-0.366-9.417-5.024-10.457c-15.447-3.451-47.351-5.879-65.139,26.158L385.174,59.17c-2.838-4.989-10.029-4.989-12.867,0
	L353.71,95.683c-17.788-32.038-49.693-29.609-65.139-26.158c-4.658,1.04-7.111,6.166-5.024,10.457l22.825,46.943
	c-24.378-19.059-46.165-11.62-57.183-5.314c-4.167,2.385-4.968,8.058-1.649,11.529l33.074,34.592l98.128,22.317l98.129-22.317
	l33.074-34.592C513.261,129.671,512.46,123.999,508.293,121.613z"/>
<polygon style="fill:#34915D;" points="280.613,167.734 378.741,190.05 476.869,167.734 501.493,141.98 255.988,141.98 "/>
<path style="fill:#FADC60;" d="M476.869,167.733H280.613c-18.459,39.137-29.554,89.483-29.554,144.419
	c0,43.719,7.026,84.529,19.198,119.097c5.337,15.159,19.628,25.321,35.699,25.321h145.57c16.071,0,30.361-10.163,35.699-25.321
	c12.173-34.569,19.198-75.379,19.198-119.097C506.422,257.216,495.328,206.87,476.869,167.733z"/>
<path style="fill:#F2C42C;" d="M261.587,222.276c-6.77,27.54-10.528,57.929-10.528,89.876c0,43.719,7.026,84.529,19.198,119.097
	c5.302,15.057,19.437,25.18,35.377,25.315c24.401-10.807,47.246-24.8,68.108-41.772c11.3-9.184,18.211-22.794,18.959-37.34
	c0.75-14.542-4.724-28.786-15.018-39.081L261.587,222.276z"/>
<polygon style="fill:#EFEDEE;" points="335.783,332.894 297.886,323.393 73.518,323.393 31.234,332.894 13.305,350.821 
	21.501,381.659 121.776,428.663 254.642,428.663 348.65,382.286 353.71,350.821 "/>
<g>
	<path style="fill:#3A484A;" d="M317.347,269.686c-4.268,0-7.726-3.459-7.726-7.726v-11.112c0-4.267,3.458-7.726,7.726-7.726
		c4.268,0,7.726,3.459,7.726,7.726v11.112C325.073,266.227,321.615,269.686,317.347,269.686z"/>
	<path style="fill:#3A484A;" d="M440.134,269.686c-4.268,0-7.726-3.459-7.726-7.726v-11.112c0-4.267,3.458-7.726,7.726-7.726
		c4.268,0,7.726,3.459,7.726,7.726v11.112C447.861,266.227,444.402,269.686,440.134,269.686z"/>
	<path style="fill:#3A484A;" d="M378.741,275.617c-8.134,0-15.777-3.406-20.969-9.346c-2.809-3.213-2.481-8.094,0.731-10.902
		c3.213-2.808,8.094-2.481,10.902,0.731c2.257,2.583,5.66,4.063,9.337,4.063c3.677,0,7.079-1.48,9.336-4.062
		c2.807-3.214,7.689-3.542,10.902-0.733c3.213,2.808,3.542,7.689,0.733,10.902C394.52,272.211,386.877,275.617,378.741,275.617z"/>
</g>
<path style="fill:#7CB777;" d="M357.499,394.808c-47.474,38.618-108.025,61.763-173.991,61.763S56.991,433.426,9.517,394.808
	c-11.854-9.636-12.775-27.422-1.974-38.224l5.763-5.763c46.892,36.804,105.976,58.746,170.202,58.746s123.311-21.942,170.202-58.746
	l5.763,5.763C370.275,367.385,369.354,385.171,357.499,394.808z"/>
<polygon style="fill:#D2D2D2;" points="19.023,372.335 23.262,368.096 43.501,347.858 66.356,325.004 31.234,332.894 22.27,341.857 
	13.306,350.821 "/>
<path style="fill:#FD6F71;" d="M335.783,332.894c-43.638,28.936-95.983,45.792-152.275,45.792S74.871,361.829,31.233,332.894
	l126.902-126.902c14.017-14.017,36.729-14.017,50.746,0L335.783,332.894z"/>
<path style="fill:#E34B4C;" d="M48.12,343.238l138.639-138.639c2.794-2.793,5.898-5.084,9.195-6.89
	c-1.584-0.585-3.201-1.053-4.838-1.407c-0.014-0.003-0.029-0.006-0.043-0.009c-7.441-1.6-15.395-0.752-22.337,2.367
	c-3.931,1.766-7.552,4.286-10.601,7.333L31.234,332.894C36.728,336.536,42.361,339.988,48.12,343.238z"/>
<g>
	<path style="fill:#3A484A;" d="M125.42,302.264c-4.268,0-7.726-3.459-7.726-7.726v-10.513c0-4.267,3.458-7.726,7.726-7.726
		c4.268,0,7.726,3.459,7.726,7.726v10.513C133.146,298.805,129.688,302.264,125.42,302.264z"/>
	<path style="fill:#3A484A;" d="M241.597,302.264c-4.268,0-7.726-3.459-7.726-7.726v-10.513c0-4.267,3.458-7.726,7.726-7.726
		s7.726,3.459,7.726,7.726v10.513C249.323,298.805,245.864,302.264,241.597,302.264z"/>
	<path style="fill:#3A484A;" d="M183.508,307.876c-7.816,0-15.162-3.274-20.153-8.984c-2.809-3.212-2.481-8.093,0.731-10.902
		c3.211-2.809,8.092-2.482,10.902,0.731c2.057,2.353,5.162,3.702,8.521,3.702s6.463-1.35,8.52-3.701
		c2.809-3.213,7.691-3.541,10.902-0.732c3.213,2.808,3.542,7.689,0.733,10.902C198.672,304.601,191.326,307.876,183.508,307.876z"/>
	<path style="fill:#3A484A;" d="M185.511,340.698c-0.988-1.345-3.016-1.345-4.004,0c-1.716,2.335-2.734,5.215-2.734,8.335
		c0,3.121,1.018,6,2.734,8.335c0.988,1.345,3.016,1.345,4.004,0c1.716-2.335,2.734-5.215,2.734-8.335
		C188.245,345.912,187.227,343.034,185.511,340.698z"/>
	<path style="fill:#3A484A;" d="M141.827,337.376c-0.406-1.619-2.283-2.387-3.707-1.516c-2.472,1.512-4.504,3.791-5.687,6.68
		c-1.182,2.889-1.33,5.939-0.625,8.75c0.406,1.619,2.283,2.387,3.707,1.516c2.472-1.512,4.504-3.791,5.687-6.68
		C142.383,343.238,142.531,340.187,141.827,337.376z"/>
	<path style="fill:#3A484A;" d="M94.158,326.019c0.095-1.667-1.469-2.958-3.087-2.55c-2.81,0.708-5.428,2.28-7.415,4.687
		c-1.987,2.407-3.036,5.275-3.2,8.168c-0.095,1.667,1.469,2.958,3.087,2.55c2.81-0.708,5.428-2.28,7.415-4.687
		C92.946,331.781,93.994,328.913,94.158,326.019z"/>
	<path style="fill:#3A484A;" d="M225.19,337.376c0.406-1.619,2.283-2.387,3.707-1.516c2.472,1.512,4.504,3.791,5.687,6.68
		c1.182,2.889,1.33,5.939,0.625,8.75c-0.406,1.619-2.283,2.387-3.707,1.516c-2.472-1.512-4.504-3.791-5.687-6.68
		C224.634,343.238,224.485,340.187,225.19,337.376z"/>
	<path style="fill:#3A484A;" d="M272.859,326.019c-0.095-1.667,1.469-2.958,3.087-2.55c2.81,0.708,5.428,2.28,7.415,4.687
		c1.987,2.407,3.036,5.275,3.2,8.168c0.095,1.667-1.469,2.958-3.087,2.55c-2.81-0.708-5.428-2.28-7.415-4.687
		C274.071,331.781,273.022,328.913,272.859,326.019z"/>
</g>
<path style="fill:#34915D;" d="M13.306,350.821l-2.881,2.881l-2.881,2.881c-4.408,4.411-7.08,10.306-7.482,16.528
	c-0.238,3.695,0.322,7.466,1.646,10.925c0.011,0.031,0.025,0.061,0.037,0.092c1.374,3.552,3.555,6.85,6.532,9.596
	c0.338-6.93,3.14-13.784,8.48-19.124l6.506-6.506l5.799-5.799C23.673,358.65,18.413,354.829,13.306,350.821z"/>
<g>
</g>
<g>
</g>
<g>
</g>
<g>
</g>
<g>
</g>
<g>
</g>
<g>
</g>
<g>
</g>
<g>
</g>
<g>
</g>
<g>
</g>
<g>
</g>
<g>
</g>
<g>
</g>
<g>
</g>
</svg>
